<svg width="320" height="320" viewBox="0 0 320 320" fill="none" xmlns="http://www.w3.org/2000/svg">
<path d="M246.901 204.311C241.059 206.329 231.398 208.571 220.838 210.589C217.018 216.643 210.053 221.575 199.268 223.145C196.797 223.593 193.876 223.818 190.955 223.818C183.54 223.818 174.778 222.921 165.117 221.8C164.442 221.8 163.544 221.575 162.87 221.575C160.398 221.351 158.601 219.109 158.601 216.643C158.825 213.952 161.072 211.934 163.993 212.158C164.667 212.158 165.566 212.382 166.24 212.382C178.822 213.728 190.506 215.073 197.92 213.952C211.85 211.71 215.895 203.414 215.221 196.463C214.547 190.634 210.502 185.028 203.762 185.252C194.101 185.701 182.642 184.58 171.632 183.459C159.05 182.113 145.794 180.992 136.582 182.338C131.414 183.01 122.652 186.373 113.215 190.185C111.193 191.082 108.946 191.979 106.924 192.876V253.862C125.797 260.589 148.715 267.764 162.42 268.885C189.832 271.127 243.755 239.961 259.034 230.096C274.312 220.006 263.977 198.481 246.901 204.311Z" fill="#E76F51"/>
<path d="M90.9713 181.889H59.2911C55.6962 181.889 53 184.804 53 188.167V257.674C53 261.262 55.9209 263.952 59.2911 263.952H90.9713C94.5662 263.952 97.2624 261.038 97.2624 257.674V188.167C97.2624 184.804 94.5662 181.889 90.9713 181.889Z" fill="#E76F51"/>
<path d="M160.649 143.789C159.794 142.928 158.451 142.928 157.597 143.666L140.749 159.397C139.772 160.257 139.772 161.732 140.626 162.592L145.144 167.14C145.998 168 147.463 168 148.318 167.017L163.823 150.057C164.678 149.196 164.556 147.844 163.701 146.984L160.649 143.789Z" fill="#E76F51"/>
<path d="M227.187 82.0935C231.46 81.9706 241.716 80.9874 248.308 74.3508C254.901 67.7143 255.878 57.3908 256 53.0893C256 51.9832 255.145 51 253.925 51C249.651 51.1229 239.396 52.1061 232.803 58.7426C226.21 65.3792 225.234 75.7027 225.112 80.0042C225.112 81.1103 226.088 82.0935 227.187 82.0935Z" fill="#E76F51"/>
<path d="M231.826 86.2722C222.548 87.2554 215.344 94.6293 212.536 97.9476C211.804 98.8079 211.926 100.16 212.781 100.774C216.199 103.478 224.745 109.131 234.024 108.148C243.303 107.165 250.506 99.7911 253.314 96.4728C254.046 95.6125 253.924 94.2606 253.07 93.6461C249.651 91.0653 241.105 85.289 231.826 86.2722Z" fill="#E76F51"/>
<path d="M209.362 94.752C212.659 91.9253 219.984 84.6742 220.961 75.3339C221.937 65.9936 216.199 57.3906 213.635 53.9494C212.903 53.0892 211.682 52.8434 210.827 53.7037C207.531 56.5303 200.206 63.7814 199.229 73.1217C198.252 82.4621 203.99 91.065 206.554 94.5062C207.165 95.3665 208.508 95.4894 209.362 94.752Z" fill="#E76F51"/>
<path d="M209.362 108.885C200.084 109.869 192.88 117.243 190.072 120.561C189.34 121.421 189.462 122.773 190.316 123.387C193.735 126.091 202.281 131.745 211.56 130.761C220.839 129.778 228.042 122.404 230.85 119.086C231.582 118.226 231.46 116.874 230.606 116.259C227.187 113.678 218.641 107.902 209.362 108.885Z" fill="#E76F51"/>
<path d="M186.898 117.365C190.194 114.539 197.52 107.288 198.496 97.9473C199.473 88.607 193.735 80.004 191.171 76.5629C190.439 75.7026 189.218 75.4568 188.363 76.3171C185.067 79.1437 177.741 86.3948 176.765 95.7351C175.788 105.075 181.526 113.678 184.09 117.12C184.823 117.98 186.043 118.103 186.898 117.365Z" fill="#E76F51"/>
<path d="M187.02 131.376C177.741 132.359 170.538 139.733 167.73 143.051C166.997 143.912 167.12 145.264 167.974 145.878C171.393 148.582 179.939 154.235 189.218 153.252C198.496 152.269 205.7 144.895 208.508 141.577C209.24 140.716 209.118 139.364 208.263 138.75C204.845 136.169 196.299 130.393 187.02 131.376Z" fill="#E76F51"/>
<path d="M176.154 120.438C177.131 111.098 171.393 102.495 168.829 99.0534C168.096 98.1931 166.875 97.9473 166.021 98.8076C162.724 101.634 155.399 108.885 154.422 118.226C153.446 127.566 159.184 136.169 161.748 139.61C162.48 140.47 163.701 140.716 164.556 139.856C167.852 137.029 175.177 129.778 176.154 120.438Z" fill="#E76F51"/>
</svg>
